<svg xmlns="http://www.w3.org/2000/svg" viewBox="0 0 256 256" fill="none">
  <rect width="256" height="256" rx="72" fill="#05070C"/>
  <rect x="18" y="18" width="220" height="220" rx="54" stroke="rgba(255,255,255,0.08)" stroke-width="4"/>

  <path
    fill="#4056C8"
    fill-rule="evenodd"
    d="M84 54C118.242 54 146 81.7583 146 116C146 150.242 118.242 178 84 178C49.7583 178 22 150.242 22 116C22 81.7583 49.7583 54 84 54ZM84 88C68.536 88 56 100.536 56 116C56 131.464 68.536 144 84 144C99.464 144 112 131.464 112 116C112 100.536 99.464 88 84 88Z"
    clip-rule="evenodd"
  />

  <circle cx="156" cy="86" r="14" fill="#A9B5FF"/>
  <circle cx="194" cy="86" r="14" fill="#A9B5FF"/>

  <path
    d="M148 128.5C148 123.806 151.806 120 156.5 120C161.194 120 165 123.806 165 128.5V168C165 172.694 161.194 176.5 156.5 176.5C151.806 176.5 148 172.694 148 168V128.5Z"
    fill="#4056C8"
  />
  <path
    d="M185.5 120C190.194 120 194 123.806 194 128.5V168C194 172.694 190.194 176.5 185.5 176.5C180.806 176.5 177 172.694 177 168V128.5C177 123.806 180.806 120 185.5 120Z"
    fill="#4056C8"
  />
  <path
    d="M207.989 119.482C211.585 116.465 216.95 116.934 219.968 120.53C222.985 124.126 222.516 129.491 218.92 132.509L204.926 144.254L221.506 158.836C225.031 161.935 225.376 167.301 222.276 170.825C219.177 174.35 213.811 174.695 210.286 171.596L186.559 150.73C184.712 149.106 183.651 146.768 183.651 144.31C183.651 141.851 184.714 139.512 186.563 137.889L207.989 119.482Z"
    fill="#4056C8"
  />
</svg>
